<svg id="Layer_1" data-name="Layer 1" xmlns="http://www.w3.org/2000/svg" viewBox="0 0 66 49.85"><defs><style>.cls-1{fill:none;stroke:#000;stroke-linecap:round;stroke-linejoin:round;stroke-width:2px;}</style></defs><title>book-moveo</title><path class="cls-1" d="M7,10.91H69.46a382.43,382.43,0,0,1,1.39,47.6A533.94,533.94,0,0,1,7,56.6C8.64,43.86,8.23,28,7,10.91Z" transform="translate(-6.04 -9.91)"/><polyline class="cls-1" points="33.01 48.59 33.01 48.56 33.01 1"/><line class="cls-1" x1="40.93" y1="16.7" x2="56.81" y2="16.7"/><line class="cls-1" x1="56.81" y1="22.81" x2="40.93" y2="22.81"/><line class="cls-1" x1="40.93" y1="27.51" x2="56.81" y2="27.51"/><line class="cls-1" x1="56.81" y1="33.61" x2="40.93" y2="33.61"/><path class="cls-1" d="M29.62,30.86a5.11,5.11,0,0,0,.07-.72v-.06a3.63,3.63,0,0,0-3.64-3.64,3.7,3.7,0,0,0-3.25,2,3.63,3.63,0,0,0-3.23-2,3.67,3.67,0,0,0-3.67,3.64v.06a7.23,7.23,0,0,0,.07.72" transform="translate(-6.04 -9.91)"/><path class="cls-1" d="M29.69,30.08v.06c0,3.81-5.3,13.68-6.89,13.68-1.25,0-6.86-9.87-6.89-13.68v-.06a3.64,3.64,0,0,1,6.89-1.65,3.7,3.7,0,0,1,3.25-2A3.63,3.63,0,0,1,29.69,30.08Z" transform="translate(-6.04 -9.91)"/></svg>