<svg id="Layer_1" data-name="Layer 1" xmlns="http://www.w3.org/2000/svg" viewBox="0 0 66 63.2"><defs><style>.cls-1{fill:none;stroke:#000;stroke-linecap:round;stroke-linejoin:round;stroke-width:2px;}</style></defs><title>bow-moveo</title><line class="cls-1" x1="8.99" y1="54.22" x2="33.62" y2="29.6"/><line class="cls-1" x1="62.12" y1="1.09" x2="62.21" y2="1"/><polyline class="cls-1" points="52.52 10.69 41.45 21.76 39.71 23.5"/><path class="cls-1" d="M31.57,31.44h0a1,1,0,0,1,.19-.22c1.48-1.48,10.35-.69,10.35-.69s.68,8.75-.81,10.24a1,1,0,0,1-.22.18h0c0,.06,0,0,0,0a1.89,1.89,0,0,1-1.63.51l0,0a4.37,4.37,0,0,1-2.37-1.31c-1.16-1.15-1.61-2.6-1.18-3.53-.93.43-2.37,0-3.53-1.18a4.35,4.35,0,0,1-1.3-2.37h0a1.9,1.9,0,0,1,.51-1.64s-.06,0,0,0Z" transform="translate(-2.27 -7.05)"/><path class="cls-1" d="M50.72,12.29h0A2.5,2.5,0,0,1,51,12C53.36,9.62,64.55,8.1,64.55,8.1s-1.64,11.06-4,13.4a2.43,2.43,0,0,1-.34.3h0c0,.09.06-.06,0,0A3.69,3.69,0,0,1,58,22.93l0,0a3.44,3.44,0,0,1-3.19-5.2,3.42,3.42,0,0,1-5.19-3.19l0,0a3.73,3.73,0,0,1,1.12-2.25c.06-.06-.08,0,0,0Z" transform="translate(-2.27 -7.05)"/><polyline class="cls-1" points="8.99 45.68 17.52 45.68 17.52 54.21"/><polyline class="cls-1" points="4.73 49.94 13.26 49.94 13.26 58.47"/><polyline class="cls-1" points="1 53.67 9.53 53.67 9.53 62.2"/><path class="cls-1" d="M67.07,61.64a5.3,5.3,0,0,1-1.3,5.19,5.52,5.52,0,0,1-7.8-.24C56.4,65,56.29,63.08,56.51,60.9l.66-2.66c1.47-7.1,1.82-14,.25-20.62-2.58-7.38-7.18-10.23-13.7-8.81.4-7.07-2.62-11.56-12.16-11.15A38.24,38.24,0,0,0,16,20.87s0,0,0,0A8.08,8.08,0,0,1,7.29,19,7.77,7.77,0,0,1,7,8.05" transform="translate(-2.27 -7.05)"/></svg>