<svg id="Layer_1" data-name="Layer 1" xmlns="http://www.w3.org/2000/svg" viewBox="0 0 65 34.48"><defs><style>.cls-1{fill:none;stroke:#000;stroke-linecap:round;stroke-linejoin:round;}</style></defs><title>car-moveo</title><path class="cls-1" d="M64,53.1a4.53,4.53,0,1,1-4.52-4.86A4.69,4.69,0,0,1,64,53.1Z" transform="translate(-4.5 -23.96)"/><path class="cls-1" d="M21,53.1a4.28,4.28,0,0,1-4.13,4.42,4.44,4.44,0,0,1,0-8.85A4.28,4.28,0,0,1,21,53.1Z" transform="translate(-4.5 -23.96)"/><path class="cls-1" d="M44.79,36.57H31.68v-8C39,29,44.79,32.38,44.79,36.57Z" transform="translate(-4.5 -23.96)"/><path class="cls-1" d="M16.94,36.57c0-4.15,5-7.57,11.52-8v8Z" transform="translate(-4.5 -23.96)"/><line class="cls-1" x1="26.47" y1="16.67" x2="26.47" y2="25.28"/><path class="cls-1" d="M51.66,36.57h12A5.34,5.34,0,0,1,69,41.91V53.66l-2-.56A7.55,7.55,0,0,0,52.3,50.82a7.72,7.72,0,0,0-.36,2.28h-28a7.12,7.12,0,1,0-14.23,0H5C6.72,36.92,17.8,24.46,31.21,24.46,39.45,24.46,46.83,29.17,51.66,36.57Z" transform="translate(-4.5 -23.96)"/></svg>