<?xml version="1.0" encoding="utf-8"?>
<!-- Generator: Adobe Illustrator 23.0.1, SVG Export Plug-In . SVG Version: 6.00 Build 0)  -->
<svg version="1.1" id="Layer_1" xmlns="http://www.w3.org/2000/svg" xmlns:xlink="http://www.w3.org/1999/xlink" x="0px" y="0px"
	 viewBox="0 0 74 74" style="enable-background:new 0 0 74 74;" xml:space="preserve">
<style type="text/css">
	.st0{fill:none;stroke:#000000;stroke-width:2;stroke-linecap:round;stroke-linejoin:round;stroke-miterlimit:10;}
</style>
<g>
	<path class="st0" d="M44.4,40.08c0,0.27-0.1,0.54-0.34,0.77l-6.9,6.98c-0.44,0.44-1.14,0.44-1.58,0l-6.9-6.98
		c-0.24-0.24-0.34-0.5-0.34-0.77c0-0.57,0.45-1.12,1.12-1.12h2.97v-7.3c0-0.82,0.67-1.49,1.49-1.49h4.87c0.82,0,1.49,0.67,1.49,1.49
		v7.3h2.97c0.34,0,0.62,0.13,0.81,0.35C44.28,39.51,44.4,39.8,44.4,40.08z"/>
	<path class="st0" d="M57.56,42.4c0,3.27-1.5,6.18-3.85,8.08c-0.52,0.44-1.11,0.81-1.72,1.13H20.59c-0.3,0-0.59-0.02-0.87-0.04
		c-4.18-0.44-7.44-3.96-7.44-8.25c0-4.29,3.27-7.84,7.44-8.27c0-0.02,0-0.02,0-0.04c0-3.24,2.61-5.86,5.86-5.86
		c1.24,0,2.39,0.37,3.33,1.02c-0.02-0.22-0.02-0.44,0-0.65c0.35-4.68,5.77-8.12,12.1-7.66c6.36,0.46,11.21,4.64,10.88,9.34
		c-0.04,0.61-0.17,1.2-0.39,1.76C55.08,34.59,57.56,38.2,57.56,42.4z"/>
	<circle class="st0" cx="34.92" cy="36.71" r="32"/>
</g>
</svg>
