<?xml version="1.0" encoding="utf-8"?>
<!-- Generator: Adobe Illustrator 23.0.1, SVG Export Plug-In . SVG Version: 6.00 Build 0)  -->
<svg version="1.1" id="Layer_1" xmlns="http://www.w3.org/2000/svg" xmlns:xlink="http://www.w3.org/1999/xlink" x="0px" y="0px"
	 viewBox="0 0 74 74" style="enable-background:new 0 0 74 74;" xml:space="preserve">
<style type="text/css">
	.st0{fill:none;stroke:#000000;stroke-width:2;stroke-linecap:round;stroke-linejoin:round;stroke-miterlimit:10;}
</style>
<g>
	<path class="st0" d="M53.98,11.31v53.94H14.5V11.31C14.5,7.82,17.32,5,20.81,5h26.86C51.15,5,53.98,7.82,53.98,11.31z"/>
	<rect x="21.61" y="12.8" class="st0" width="25.25" height="18.5"/>
	<line class="st0" x1="10.23" y1="69" x2="59.13" y2="69"/>
	<path class="st0" d="M68.52,26.51h-4.36c-1.32,0-2.39,1.07-2.39,2.39v3.82c0,1.32,1.07,2.39,2.39,2.39h4.36"/>
	<path class="st0" d="M60.25,16.72c0,0,8.27,3.21,8.27,9.78v8.6v18.46c0,3.22-1.78,5.84-4.02,5.84h-0.27
		c-2.24,0-4.02-2.62-4.02-5.84l0-16.04c0-0.89-0.72-1.61-1.61-1.61l-4.62,0.01"/>
</g>
</svg>
