<svg id="Layer_1" data-name="Layer 1" xmlns="http://www.w3.org/2000/svg" viewBox="0 0 55.12 65.14"><defs><style>.cls-1{fill:none;stroke:#000;stroke-linecap:round;stroke-linejoin:round;stroke-width:2px;}</style></defs><title>girl-moveo</title><path class="cls-1" d="M22.76,55.49s0,0,0,0" transform="translate(-7.32 -4.43)"/><polyline class="cls-1" points="7.54 51.95 7.54 52.13 9.91 52.13"/><path class="cls-1" d="M53.07,57.27c3.43-.25,6.36-2.42,8.38-4.46a13.92,13.92,0,0,1-5-7.31,18.47,18.47,0,0,1-.85-8l-.15-14a17.49,17.49,0,0,0-3.79-11.08A12.06,12.06,0,0,0,42.5,7.85a2.78,2.78,0,0,0-1.65.54,4.3,4.3,0,0,0-3.88-3H34.6c-10.89,0-19.74,10.66-19.74,23.78v9.55a19,19,0,0,1-.95,6.74c-1.24,3.93-3.43,6.81-5.59,7.78a12.22,12.22,0,0,0,6.54,3.1,16.84,16.84,0,0,0,2.37.18c6.36,0,11.54-4,11.54-9a2.8,2.8,0,0,0,0-.5" transform="translate(-7.32 -4.43)"/><path class="cls-1" d="M11.72,68.57c.24-5.52,3.17-10.16,7.17-12.12h0" transform="translate(-7.32 -4.43)"/><path class="cls-1" d="M40.34,47.64a17.47,17.47,0,0,0,.92,3c.83,1.79.65,2,3.67,4.18a12.54,12.54,0,0,0,3.55,1.06,6.59,6.59,0,0,1,4.59,1.36,14.31,14.31,0,0,1,5.74,11.3" transform="translate(-7.32 -4.43)"/><path class="cls-1" d="M50,68.14c0-3.42-3.19-6.24-7.13-6.24-3.61,0-6.6,2.36-7.07,5.39-.68-2.82-3.55-4.92-7-4.92-3.93,0-7.13,2.78-7.13,6.2" transform="translate(-7.32 -4.43)"/><path class="cls-1" d="M47,26.83C44.26,24.3,42.51,20,41.71,12.49c-1.5,4.84-7.62,7.18-9.9,7.91a7.89,7.89,0,0,1-1.6.28c-4.55.45-8.13,5-8.13,10.64v2.24c0,8.49,5.71,15.37,12.76,15.37h.44c7,0,12.76-6.88,12.76-15.37V29.14A3.16,3.16,0,0,0,47,26.83Z" transform="translate(-7.32 -4.43)"/><path class="cls-1" d="M39,39.83c0,1.32-1.74,2.39-3.84,2.39a4.18,4.18,0,0,1-3.62-1.57" transform="translate(-7.32 -4.43)"/><path class="cls-1" d="M42.34,28.87c0,.71-.94,1.28-2.06,1.28a2.24,2.24,0,0,1-1.93-.84" transform="translate(-7.32 -4.43)"/><path class="cls-1" d="M31.52,28.87c0,.71-.94,1.28-2.06,1.28a2.24,2.24,0,0,1-1.93-.84" transform="translate(-7.32 -4.43)"/><path class="cls-1" d="M27.68,51.39c.88,3.92,3.84,6.81,7.4,6.81,3.19,0,5.94-2.39,7.1-5.74" transform="translate(-7.32 -4.43)"/></svg>