<?xml version="1.0" encoding="utf-8"?>
<!-- Generator: Adobe Illustrator 23.0.1, SVG Export Plug-In . SVG Version: 6.00 Build 0)  -->
<svg version="1.1" id="Capa_1" xmlns="http://www.w3.org/2000/svg" xmlns:xlink="http://www.w3.org/1999/xlink" x="0px" y="0px"
	 viewBox="0 0 510 510" style="enable-background:new 0 0 510 510;" xml:space="preserve">
<style type="text/css">
	.st0{fill:none;stroke:#000000;stroke-width:2;stroke-linecap:round;stroke-linejoin:round;stroke-miterlimit:10;}
</style>
<g>
	<polyline class="st0" points="263.1,109.6 333.4,213.9 452.5,249.2 361.5,355 375.1,480.9 253.1,421.4 137.8,480.9 139.5,355 
		59.6,249.2 186.3,212.1 246.7,106.1 	"/>
	<polygon class="st0" points="254.2,280.1 254.2,144.8 307.6,232.5 262.2,287.8 407.6,257.1 342.2,335.5 263,300.1 348.3,437.1 
		254.2,399.4 254.2,304.8 162.2,437.1 166.8,334.8 249.1,294 104.5,259.4 200.7,235.5 254.2,284 	"/>
	<path class="st0" d="M286.1,62c0,16.6-30.1,57.8-30.1,57.8S226,78.6,226,62c0-16.6,13.5-30.1,30.1-30.1S286.1,45.3,286.1,62z"/>
	<ellipse transform="matrix(0.2298 -0.9732 0.9732 0.2298 133.9719 299.2491)" class="st0" cx="256" cy="65" rx="13.5" ry="13.5"/>
</g>
</svg>
