<?xml version="1.0" encoding="utf-8"?>
<!-- Generator: Adobe Illustrator 23.0.1, SVG Export Plug-In . SVG Version: 6.00 Build 0)  -->
<svg version="1.1" id="Layer_1" xmlns="http://www.w3.org/2000/svg" xmlns:xlink="http://www.w3.org/1999/xlink" x="0px" y="0px"
	 viewBox="0 0 74 74" style="enable-background:new 0 0 74 74;" xml:space="preserve">
<style type="text/css">
	.st0{fill:none;stroke:#000000;stroke-width:2;stroke-linecap:round;stroke-linejoin:round;stroke-miterlimit:10;}
</style>
<g>
	<g>
		<g>
			<circle class="st0" cx="38.15" cy="19.79" r="9.56"/>
		</g>
		<g>
			<path class="st0" d="M56.65,19.79c0,10.23-18.5,29.41-18.5,29.41S19.62,30.02,19.62,19.79s8.3-18.5,18.53-18.5
				S56.65,9.56,56.65,19.79z"/>
		</g>
	</g>
	<g>
		<path class="st0" d="M64.15,50.29L51.69,62.14c-0.16,0.15-0.39,0.2-0.6,0.12l-11.64-4.28c-0.36-0.13-0.49-0.58-0.26-0.89
			l13.63-17.77h7.51L64.15,50.29z"/>
		<polygon class="st0" points="47.48,72.71 65.62,54.51 71.94,72.71 		"/>
		<path class="st0" d="M23.56,72.71V59.42c0-0.71,0.69-1.21,1.36-1l21.75,6.85c0.74,0.23,0.98,1.17,0.43,1.73l-5.57,5.71H23.56z"/>
		<path class="st0" d="M19.19,72.71H4.34l6.51-18.69l7.57,2.73c0.46,0.17,0.77,0.61,0.77,1.1V72.71z"/>
		<polygon class="st0" points="23.56,39.33 38.72,57.79 12.35,49.71 15.94,39.33 		"/>
	</g>
</g>
</svg>
