<?xml version="1.0" encoding="utf-8"?>
<!-- Generator: Adobe Illustrator 23.0.1, SVG Export Plug-In . SVG Version: 6.00 Build 0)  -->
<svg version="1.1" id="Layer_1" xmlns="http://www.w3.org/2000/svg" xmlns:xlink="http://www.w3.org/1999/xlink" x="0px" y="0px"
	 viewBox="0 0 74 74" style="enable-background:new 0 0 74 74;" xml:space="preserve">
<style type="text/css">
	.st0{fill:none;stroke:#000000;stroke-width:2;stroke-linecap:round;stroke-linejoin:round;stroke-miterlimit:10;}
	.st1{fill:none;}
</style>
<g>
	<path class="st0" d="M65.4,24.95c1.57,3.72,2.44,7.81,2.44,12.1c0,17.16-13.91,31.07-31.07,31.07c-6.01,0-11.61-1.7-16.35-4.67"/>
	<path class="st0" d="M7.2,46.6c-0.98-3.01-1.51-6.22-1.51-9.54c0-17.16,13.91-31.07,31.07-31.07c4.21,0,8.24,0.83,11.91,2.36"/>
	<line class="st0" x1="10.4" y1="53.48" x2="10.38" y2="53.46"/>
	<g>
		<g>
			<circle class="st0" cx="56.9" cy="16.81" r="6.1"/>
		</g>
		<g>
			<path class="st0" d="M68.7,16.81c0,6.53-11.81,18.77-11.81,18.77S45.07,23.34,45.07,16.81S50.37,5,56.9,5S68.7,10.28,68.7,16.81z
				"/>
		</g>
	</g>
	<g>
		<g>
			<circle class="st0" cx="15.66" cy="52.56" r="5.35"/>
		</g>
		<g>
			<path class="st0" d="M26,52.55C26,58.28,15.66,69,15.66,69S5.3,58.28,5.3,52.55s4.64-10.34,10.36-10.34S26,46.83,26,52.55z"/>
		</g>
	</g>
	<path class="st0" d="M43.03,31.73c2.32-0.98,1.82-0.76,4.5-0.76"/>
	<path class="st0" d="M33.75,37.97c1.06-1.27,2.28-2.41,3.63-3.38"/>
	<path class="st0" d="M29.64,46.54c0.3-1.51,0.78-2.96,1.42-4.33"/>
	<path class="st0" d="M66.14,47.21c0,0-9.86-10.94-13.31,3.73c-0.35,1.49-1.45,2.69-2.92,3.14c-4.23,1.29-11.64,4.8-2.38,12.13"/>
	<path class="st0" d="M21,43.7c0,0,6.82-12.73-3.19-12.73c0,0-8.36,0.73-10.99-2.22"/>
	<path class="st0" d="M20.58,10.53c3.12,0.08,5.8,2.64,7.04,6.31c0.75,2.23,0.76,4.65,0.27,6.96l-0.38,1.82
		c-0.46,2.19,0.46,4.58,2.47,5.57c0.7,0.35,1.47,0.53,2.29,0.53c6.04,0.08,5.77,2.29,5.77,2.29c7.59,6.6-1.32,19.49-5.81,23.8
		c-1.22,1.16-1.9,2.77-1.9,4.45v5.2"/>
</g>
</svg>
