<?xml version="1.0" encoding="utf-8"?>
<!-- Generator: Adobe Illustrator 23.0.1, SVG Export Plug-In . SVG Version: 6.00 Build 0)  -->
<svg version="1.1" id="Layer_1" xmlns="http://www.w3.org/2000/svg" xmlns:xlink="http://www.w3.org/1999/xlink" x="0px" y="0px"
	 viewBox="0 0 74 74" style="enable-background:new 0 0 74 74;" xml:space="preserve">
<style type="text/css">
	.st0{fill:none;stroke:#000000;stroke-width:2;stroke-linecap:round;stroke-linejoin:round;stroke-miterlimit:10;}
	.st1{fill:none;}
</style>
<g>
	<path class="st0" d="M69,35.63v12.65c0,2.08-1.68,3.76-3.76,3.76H8.76C6.68,52.04,5,50.36,5,48.28V35.72
		c0-1.48,0.61-2.89,1.68-3.91l1.49-1.41c0.85-0.81,1.98-1.26,3.15-1.26h51.9c1.45,0,2.81,0.69,3.68,1.86l1.05,1.43
		C68.63,33.35,69,34.47,69,35.63z"/>
	<line class="st0" x1="29.03" y1="39.36" x2="44.75" y2="39.36"/>
	<line class="st0" x1="44.75" y1="44.51" x2="29.03" y2="44.51"/>
	<rect x="51.38" y="37.9" class="st0" width="11.33" height="7.95"/>
	<rect x="11.63" y="37.9" class="st0" width="11.33" height="7.95"/>
	<path class="st0" d="M17.81,52.04v4.28c0,2.6-2.32,4.71-5.17,4.71h-2.47C7.32,61.03,5,58.92,5,56.32v-8.03"/>
	<path class="st0" d="M69,48.29v8.03c0,2.6-2.32,4.71-5.17,4.71h-2.47c-2.85,0-5.17-2.11-5.17-4.71v-4.28"/>
	<path class="st0" d="M57.85,29.14C57.96,28.7,58,28.25,58,27.79c0-3.69-3.58-6.69-7.97-6.69c-4.42,0-7.97,3-7.97,6.69
		c0,0.46,0.04,0.91,0.15,1.35"/>
	<path class="st0" d="M65.41,29.7l-4.84-13.22c-0.73-2.1-2.69-3.51-4.92-3.51H18.45c-2.36,0-4.44,1.59-5.06,3.89l-3.25,12.28"/>
</g>
</svg>
