<?xml version="1.0" encoding="utf-8"?>
<!-- Generator: Adobe Illustrator 23.0.1, SVG Export Plug-In . SVG Version: 6.00 Build 0)  -->
<svg version="1.1" id="Layer_1" xmlns="http://www.w3.org/2000/svg" xmlns:xlink="http://www.w3.org/1999/xlink" x="0px" y="0px"
	 viewBox="0 0 74 74" style="enable-background:new 0 0 74 74;" xml:space="preserve">
<style type="text/css">
	.st0{fill:none;stroke:#000000;stroke-width:2;stroke-linecap:round;stroke-linejoin:round;stroke-miterlimit:10;}
	.st1{fill:none;}
</style>
<g>
	<g>
		<path class="st0" d="M52.27,20.45v10.4c0,1.08-0.92,1.95-2.06,1.95H19.8c-1.14,0-2.06-0.87-2.06-1.95v-10.4
			C29.58,21.98,41.12,22.11,52.27,20.45z"/>
		<path class="st0" d="M24.6,32.79v1.24c0,1.12-0.9,2.02-2.02,2.02H21.3c-1.12,0-2.02-0.9-2.02-2.02v-1.3"/>
		<path class="st0" d="M50.91,32.66h0.07v1.37c0,1.12-0.9,2.02-2.02,2.02h-1.28c-1.12,0-2.02-0.9-2.02-2.02v-1.24"/>
		<line class="st0" x1="30.26" y1="28.8" x2="40.12" y2="28.8"/>
		<path class="st0" d="M48.57,25.55c0,1.08-0.9,1.96-1.98,1.96s-1.98-0.88-1.98-1.96c0-1.1,0.9-1.98,1.98-1.98
			S48.57,24.45,48.57,25.55z"/>
		<path class="st0" d="M25.54,25.55c0,1.08-0.9,1.96-1.98,1.96s-1.98-0.88-1.98-1.96c0-1.1,0.9-1.98,1.98-1.98
			S25.54,24.45,25.54,25.55z"/>
		<path class="st0" d="M50.3,20.67v-0.04c-0.07-0.47-0.13-0.92-0.22-1.35c-0.22-1.21-0.54-2.36-0.92-3.44
			c-0.88-2.47-2.2-4.59-4-6.36c-0.52-0.49-1.21-0.74-1.91-0.74H26.65c-0.72,0-1.42,0.25-1.91,0.74c-1.8,1.78-3.13,3.89-4.02,6.36
			c-0.38,1.03-0.7,2.16-0.9,3.33c-0.11,0.47-0.2,0.97-0.27,1.48v0.02h0.16"/>
		<path class="st0" d="M50.08,19.28h0.85c1.35,0,2.45-1.1,2.45-2.47v-0.97h-4.23"/>
		<path class="st0" d="M19.81,19.17h-0.2c-1.62,0-2.92-1.3-2.92-2.92v-0.4h4.02"/>
	</g>
	<path class="st0" d="M11.56,38.32c0.72-0.49,1.55-0.74,2.38-0.74c0.85,0,1.71,0.25,2.45,0.79l7.64,5.4"/>
	<path class="st0" d="M22.13,46.66l-10.3-8.16c-0.09-0.07-0.18-0.13-0.27-0.18c-0.7-0.52-1.53-0.74-2.34-0.74
		c-1.52,0-3,0.81-3.78,2.32c-0.95,1.83-0.3,4.1,1.32,5.38l23.83,18.83l0.58,0.31c1.45,0.77,3.12,1.02,4.73,0.73l13.6-2.48
		c0.4-0.05,1.05-0.14,1.45-0.19l8.03-0.64l0.89,1.49c1.12,0.5,2.25,0.5,3.37,0l5.26-8.06c0.9-1.38,0.56-3.22-0.77-4.18l-14.34-10.4
		l-27.41,2.38C23.97,43.25,22.42,44.78,22.13,46.66c-0.02,0.2-0.04,0.4-0.04,0.61c0,0.13,0.02,0.25,0.02,0.38
		c0.2,2.34,2.27,4.07,4.61,3.87l7.4-0.65l10.96-0.95c1.53-0.13,3.01,0.88,3.22,2.4c0.02,0.14,0.03,0.28,0.03,0.42v0.02
		c0,1.66-1.35,3.01-3.01,3.01h0c-2.77,0-5.46-0.86-7.72-2.45l-0.42-0.29l-3.06-2.16"/>
</g>
</svg>
