<?xml version="1.0" encoding="utf-8"?>
<!-- Generator: Adobe Illustrator 23.0.1, SVG Export Plug-In . SVG Version: 6.00 Build 0)  -->
<svg version="1.1" id="Layer_1" xmlns="http://www.w3.org/2000/svg" xmlns:xlink="http://www.w3.org/1999/xlink" x="0px" y="0px"
	 viewBox="0 0 74 74" style="enable-background:new 0 0 74 74;" xml:space="preserve">
<style type="text/css">
	.st0{fill:none;stroke:#000000;stroke-width:2;stroke-linecap:round;stroke-linejoin:round;stroke-miterlimit:10;}
	.st1{fill:none;}
</style>
<g>
	<path class="st0" d="M44.2,36.51c-2.88,3.66-7.25,5.02-9.78,3.03s-2.25-6.57,0.63-10.23s7.28-5,9.8-3.02
		C47.38,28.28,47.08,32.85,44.2,36.51z"/>
	<path class="st0" d="M46.03,33.24c1.76,1.32,5.55,2.77,10.09,3.72c6.49,1.36,12,1.2,12.32-0.38c0.33-1.54-4.64-3.93-11.13-5.29
		c-4.53-0.95-8.6-1.15-10.75-0.66"/>
	<path class="st0" d="M39.22,26.01c0.51-1.78-0.68-6.36-3.05-11.36c-2.85-5.99-6.33-10.26-7.75-9.58
		c-1.46,0.69-0.32,6.08,2.52,12.07c2.41,5.07,5.27,8.92,6.99,9.55"/>
	<path class="st0" d="M40.82,25.49c-0.47,1.2,0.21,2.85,1.66,4c1.39,1.09,3.02,1.36,4.07,0.75"/>
	<path class="st0" d="M68.43,36.58c0.49,9.2-7.31,17.07-17.72,24.5c-7.99-8.23-13.8-16.21-7.98-23.01l0.02-0.02"/>
	<path class="st0" d="M28.42,5.07c-9.06,1.69-13.17,12.45-17.95,24.32c8.86,5.23,17.11,8.81,22.48,4.24"/>
	<polyline class="st0" points="46.64,30.59 46.63,30.61 46.55,30.79 	"/>
	<path class="st0" d="M37.22,40.44C35.86,50.65,37.58,60.24,41,69l-1.77-1.39c-1.77-1.39-4.24-1.53-6.16-0.32
		c-2.86-9.82-2.27-20.48-0.03-25.35c-2.17,2.18-6.43,4.7-11.05,5.97c-4.61,1.27-9.87,1.46-15.56,0.9c1.75-2.1,1.58-5.16-0.36-7.07
		l-0.54-0.53c8.43,2.62,19.45,2.2,27.54-3.53"/>
</g>
</svg>
