<?xml version="1.0" encoding="utf-8"?>
<!-- Generator: Adobe Illustrator 23.0.1, SVG Export Plug-In . SVG Version: 6.00 Build 0)  -->
<svg version="1.1" id="Layer_1" xmlns="http://www.w3.org/2000/svg" xmlns:xlink="http://www.w3.org/1999/xlink" x="0px" y="0px"
	 viewBox="0 0 74 74" style="enable-background:new 0 0 74 74;" xml:space="preserve">
<style type="text/css">
	.st0{fill:none;stroke:#000000;stroke-width:2;stroke-linecap:round;stroke-linejoin:round;stroke-miterlimit:10;}
	.st1{fill:none;}
</style>
<g>
	
		<ellipse transform="matrix(0.7071 -0.7071 0.7071 0.7071 -18.283 48.489)" class="st0" cx="49.39" cy="46.31" rx="19.61" ry="19.61"/>
	<polyline class="st0" points="49.39,39.24 49.39,46.32 55.56,52.56 	"/>
	<line class="st0" x1="60.19" y1="46.32" x2="63.49" y2="46.32"/>
	<line class="st0" x1="38.59" y1="46.32" x2="35.29" y2="46.32"/>
	<line class="st0" x1="49.39" y1="57.12" x2="49.39" y2="60.42"/>
	<line class="st0" x1="49.39" y1="35.53" x2="49.39" y2="32.22"/>
	<line class="st0" x1="59.02" y1="36.54" x2="59.02" y2="36.54"/>
	<line class="st0" x1="39.61" y1="36.7" x2="39.61" y2="36.7"/>
	<line class="st0" x1="39.76" y1="56.1" x2="39.76" y2="56.1"/>
	<line class="st0" x1="59.17" y1="55.95" x2="59.17" y2="55.95"/>
	<path class="st0" d="M56.44,24.11c-1.06-3.07-3.97-5.26-7.4-5.26H14.39c-4.33,0-7.83,3.49-7.83,7.83v12.45h21.03"/>
	<path class="st0" d="M29.78,33.87H25c-1.56,0-2.82-1.26-2.82-2.82v0c0-1.56,1.26-2.82,2.82-2.82h9.13"/>
	<line class="st0" x1="10.95" y1="26.7" x2="18.33" y2="26.7"/>
	<line class="st0" x1="10.51" y1="33.87" x2="14.64" y2="33.87"/>
	<path class="st0" d="M18.89,39.12v2.53c0,1.39-1.61,2.52-3.59,2.52h-2.84c-1.98,0-3.59-1.13-3.59-2.52v-2.53"/>
	<path class="st0" d="M5,15.01h3.67c2.17,0,3.9,1.73,3.9,3.9v0.14"/>
	<path class="st0" d="M51.21,19.17v-0.26c0-2.17,1.73-3.9,3.9-3.9h3.67"/>
	<path class="st0" d="M49.25,18.85l-4.65-7.74c-1.13-1.88-3.15-3.03-5.34-3.03H23.34c-1.94,0-3.7,1.04-4.68,2.71l-4.56,8.06"/>
</g>
</svg>
