<?xml version="1.0" encoding="utf-8"?>
<!-- Generator: Adobe Illustrator 23.0.1, SVG Export Plug-In . SVG Version: 6.00 Build 0)  -->
<svg version="1.1" id="Layer_1" xmlns="http://www.w3.org/2000/svg" xmlns:xlink="http://www.w3.org/1999/xlink" x="0px" y="0px"
	 viewBox="0 0 74 74" style="enable-background:new 0 0 74 74;" xml:space="preserve">
<style type="text/css">
	.st0{fill:none;stroke:#000000;stroke-width:2;stroke-linecap:round;stroke-linejoin:round;stroke-miterlimit:10;}
	.st1{fill:none;}
</style>
<g>
	<g>
		<rect x="14.59" y="40.61" class="st0" width="20.01" height="28.39"/>
		<rect x="39.04" y="40.61" class="st0" width="20.01" height="28.39"/>
		<g>
			<rect x="12.37" y="26.46" class="st0" width="22.41" height="10.76"/>
			<rect x="39.22" y="26.46" class="st0" width="22.41" height="10.76"/>
		</g>
	</g>
	<path class="st0" d="M41.52,20.49c0,1.41-2.02,2.53-4.52,2.53c-2.48,0-4.52-1.12-4.52-2.53c0-1.41,2.04-2.53,4.52-2.53
		C39.5,17.96,41.52,19.08,41.52,20.49z"/>
	<path class="st0" d="M32.51,20.39c-2.23,0.73-6.17,1.77-8.09,0.78c-2.82-1.43-4.18-4.37-3.06-6.56c1.12-2.19,4.3-2.77,7.11-1.31
		c2.04,1.04,4.15,3.98,5.15,5.51"/>
	<path class="st0" d="M41.37,21.1c2.04,0.51,4.95,1,6.53,0.19c2.6-1.34,3.93-3.91,2.99-5.75c-0.95-1.82-3.81-2.23-6.41-0.9
		c-1.55,0.8-3.18,2.7-4.25,4.08"/>
	<path class="st0" d="M40.18,22.29c0,0.02,0.02,0,0.02,0c4.39,0.51,12.24,1.09,14.54-0.83c3.23-2.72,3.62-7.58,0.87-10.85
		c-2.74-3.25-7.6-3.69-10.83-1c-1.92,1.63-4.25,5.63-5.8,8.62"/>
	<path class="st0" d="M35.52,18.11c-1.82-3.57-4.81-8.98-7.26-11.05c-3.76-3.18-9.47-2.62-12.72,1.26
		c-3.25,3.86-2.82,9.57,0.95,12.75c2.65,2.21,11.65,1.53,16.85,0.87"/>
</g>
</svg>
