<?xml version="1.0" encoding="utf-8"?>
<!-- Generator: Adobe Illustrator 23.0.1, SVG Export Plug-In . SVG Version: 6.00 Build 0)  -->
<svg version="1.1" id="Layer_1" xmlns="http://www.w3.org/2000/svg" xmlns:xlink="http://www.w3.org/1999/xlink" x="0px" y="0px"
	 viewBox="0 0 74 74" style="enable-background:new 0 0 74 74;" xml:space="preserve">
<style type="text/css">
	.st0{fill:none;stroke:#000000;stroke-width:2;stroke-linecap:round;stroke-linejoin:round;stroke-miterlimit:10;}
	.st1{fill:none;}
</style>
<g>
	<path class="st0" d="M35.29,11.58v50.83c0,3.64-2.95,6.58-6.58,6.58H11.66c-3.64,0-6.58-2.95-6.58-6.58V11.58
		C5.08,7.95,8.03,5,11.66,5h17.05C32.35,5,35.29,7.95,35.29,11.58z"/>
	<line class="st0" x1="35.29" y1="59.39" x2="5.08" y2="59.39"/>
	<line class="st0" x1="5.08" y1="14.61" x2="35.29" y2="14.61"/>
	<line class="st0" x1="17.01" y1="63.42" x2="23.67" y2="63.42"/>
	<circle class="st0" cx="20.19" cy="35.97" r="9"/>
	<polyline class="st0" points="29.19,35.97 21.08,35.97 19.29,35.97 11.19,35.97 	"/>
	<polyline class="st0" points="14.9,43.27 13.45,41.82 19.29,35.97 	"/>
	<polyline class="st0" points="21.08,35.97 26.92,41.82 25.51,43.24 25.48,43.27 	"/>
	<path class="st0" d="M45.21,14.61h12.94c1.36,0,2.68-0.43,3.78-1.24l3.58-2.64v8.5c0,2.35-1.12,4.56-3.02,5.95l0,0
		c-0.65,0.48-1.44,0.74-2.25,0.74H46.22c-3.04,0-5.5-2.46-5.5-5.5V19.1C40.72,16.62,42.73,14.61,45.21,14.61L45.21,14.61z"/>
	<path class="st0" d="M62.35,25.29v8.78c0,5.64-4.57,10.21-10.21,10.21c-2.82,0-5.37-1.15-7.22-2.99c-1.84-1.85-2.99-4.4-2.99-7.22
		V23.87"/>
	<line class="st0" x1="57.92" y1="31.03" x2="57.92" y2="34.07"/>
	<line class="st0" x1="46.61" y1="31.03" x2="46.61" y2="34.07"/>
	<path class="st0" d="M55.2,37.88l-0.31,0.5c-0.44,0.72-1.23,1.16-2.07,1.16h-1.25c-0.85,0-1.63-0.44-2.07-1.16l-0.31-0.5"/>
	<path class="st0" d="M41.59,59.39h-0.01h-6.29v-2.01c0-5.05,4.09-9.14,9.14-9.14h3.3v-4.96"/>
	<path class="st0" d="M56.53,43.29v4.95h3.25c5.05,0,9.14,4.09,9.14,9.14v2.01h-4.88"/>
	<path class="st0" d="M43.52,48.29c0.08,2.04,1.77,3.67,3.83,3.67h8.43c2.08,0,3.77-1.66,3.83-3.72"/>
	<path class="st0" d="M46.04,57.46c1.78-0.83,3.85-1.31,6.06-1.31c2.61,0,5.02,0.67,6.97,1.8h0.01"/>
	
		<rect x="59.04" y="56.92" transform="matrix(0.7259 -0.6878 0.6878 0.7259 -25.4822 59.6524)" class="st0" width="6.13" height="9.76"/>
	
		<rect x="59.04" y="59.94" transform="matrix(0.7259 -0.6878 0.6878 0.7259 -25.4822 59.6524)" class="st0" width="6.13" height="3.72"/>
	
		<rect x="38.64" y="58.74" transform="matrix(0.6878 -0.7259 0.7259 0.6878 -31.2729 50.8889)" class="st0" width="9.76" height="6.13"/>
	
		<rect x="41.66" y="58.74" transform="matrix(0.6878 -0.7259 0.7259 0.6878 -31.2729 50.8889)" class="st0" width="3.72" height="6.13"/>
</g>
</svg>
