<?xml version="1.0" encoding="utf-8"?>
<!-- Generator: Adobe Illustrator 23.0.1, SVG Export Plug-In . SVG Version: 6.00 Build 0)  -->
<svg version="1.1" id="Layer_1" xmlns="http://www.w3.org/2000/svg" xmlns:xlink="http://www.w3.org/1999/xlink" x="0px" y="0px"
	 viewBox="0 0 74 74" style="enable-background:new 0 0 74 74;" xml:space="preserve">
<style type="text/css">
	.st0{fill:none;stroke:#000000;stroke-width:2;stroke-linecap:round;stroke-linejoin:round;stroke-miterlimit:10;}
</style>
<g>
	<circle class="st0" cx="34.53" cy="26.92" r="3.91"/>
	<circle class="st0" cx="34.53" cy="26.92" r="13.35"/>
	<line class="st0" x1="30.73" y1="26.03" x2="21.24" y2="26.03"/>
	<line class="st0" x1="47.83" y1="26.03" x2="38.34" y2="26.03"/>
	<polyline class="st0" points="34.53,30.83 34.53,38.47 34.53,40.26 	"/>
	<path class="st0" d="M54.54,26.92c0,10.44-20.01,33.74-20.01,33.74S14.9,37.36,14.9,26.92s9.37-20,19.82-20
		S54.54,16.47,54.54,26.92z"/>
	<path class="st0" d="M44.81,54.7c5.83,1.52,9.73,4.32,9.73,7.51c0,4.82-8.88,8.7-19.83,8.7c-10.92,0-19.8-3.88-19.8-8.7
		c0-3.13,3.75-5.88,9.37-7.42"/>
</g>
</svg>
