<?xml version="1.0" encoding="utf-8"?>
<!-- Generator: Adobe Illustrator 23.0.1, SVG Export Plug-In . SVG Version: 6.00 Build 0)  -->
<svg version="1.1" id="Layer_1" xmlns="http://www.w3.org/2000/svg" xmlns:xlink="http://www.w3.org/1999/xlink" x="0px" y="0px"
	 viewBox="0 0 74 74" style="enable-background:new 0 0 74 74;" xml:space="preserve">
<style type="text/css">
	.st0{fill:none;stroke:#000000;stroke-width:2;stroke-linecap:round;stroke-linejoin:round;stroke-miterlimit:10;}
	.st1{fill:none;}
</style>
<g>
	<path class="st0" d="M54.45,18.34c0,7.38-5.99,13.36-13.36,13.36c-7.38,0-13.36-5.97-13.36-13.36C27.74,10.97,33.72,5,41.1,5
		C48.46,5,54.45,10.97,54.45,18.34z"/>
	<g>
		<line class="st0" x1="41.1" y1="27.01" x2="41.1" y2="24.18"/>
		<line class="st0" x1="41.1" y1="12.91" x2="41.1" y2="9.68"/>
		<path class="st0" d="M38.18,21.44c0,1.51,1.31,2.74,2.92,2.74c1.61,0,2.92-1.23,2.92-2.74c0-1.51-1.31-2.72-2.92-2.72
			c-1.61,0-2.92-1.31-2.92-2.92s1.31-2.9,2.92-2.9c1.61,0,2.92,1.29,2.92,2.9"/>
	</g>
	<line class="st0" x1="33.72" y1="48.3" x2="31.7" y2="48.3"/>
	<path class="st0" d="M14.41,49.35c0-5.49,5.31-10.28,11.89-10.28c2.54,0,4.89,0.66,6.81,1.81c0.18,0.11,0.38,0.16,0.58,0.16h13.86
		c2.19,0,3.98,1.79,3.98,3.98v0.02c0,2.19-1.79,3.98-3.98,3.98H37.42"/>
	<path class="st0" d="M13.71,48.67l11.85,11.44c0.99,0.96,0.95,2.61-0.09,3.69l-4.17,4.32c-1.04,1.08-2.69,1.17-3.68,0.22L5.76,56.9
		c-0.99-0.96-0.95-2.61,0.09-3.69l4.17-4.32C11.07,47.81,12.71,47.72,13.71,48.67z"/>
	<path class="st0" d="M51.53,44.17l9.58-10.39c1.69-1.83,4.55-1.95,6.38-0.28c0.99,0.88,1.47,2.11,1.47,3.34
		c0,1.09-0.38,2.17-1.19,3.04L55.6,53.17c-1.95,2.13-4.73,3.36-7.64,3.36h-6.13h-8.9c-2.94,0-5.79,1.03-8.06,2.92l0,0"/>
</g>
</svg>
