<?xml version="1.0" encoding="utf-8"?>
<!-- Generator: Adobe Illustrator 23.0.1, SVG Export Plug-In . SVG Version: 6.00 Build 0)  -->
<svg version="1.1" id="Layer_1" xmlns="http://www.w3.org/2000/svg" xmlns:xlink="http://www.w3.org/1999/xlink" x="0px" y="0px"
	 viewBox="0 0 74 74" style="enable-background:new 0 0 74 74;" xml:space="preserve">
<style type="text/css">
	.st0{fill:none;stroke:#000000;stroke-width:2;stroke-linecap:round;stroke-linejoin:round;stroke-miterlimit:10;}
	.st1{fill:none;}
</style>
<g>
	<path class="st0" d="M26.02,22.68c0-4.17,3.59-7.57,8.03-7.57s8.03,3.39,8.03,7.57c0-4.17,3.59-7.57,8.03-7.57s8.03,3.39,8.03,7.57
		c0,8.4-16.07,20.76-16.07,20.76S26.02,31.08,26.02,22.68z"/>
	<path class="st0" d="M39.29,16.93c0.15-3.09-0.18-5.91-1.35-7.92c-2.3-3.97-7.59-5.21-11.83-2.77c-4.21,2.47-5.77,7.68-3.44,11.65
		c-2.32-3.97-7.62-5.21-11.83-2.77c-4.24,2.47-5.77,7.68-3.47,11.65c4.65,8,26.78,10.86,26.78,10.86s0.15-0.35,0.38-0.94"/>
	<path class="st0" d="M50.29,44.9c0.54-1.33,2.12-1.96,3.54-1.38c1.42,0.57,2.13,2.12,1.59,3.45c0.54-1.33,2.12-1.96,3.54-1.38
		c1.42,0.57,2.13,2.12,1.59,3.45c-1.08,2.68-7.8,4.56-7.8,4.56S49.21,47.58,50.29,44.9z"/>
	<g>
		<path class="st0" d="M23,51.79c-0.68-1.58,0.13-3.46,1.81-4.18s3.6-0.02,4.28,1.56c-0.68-1.58,0.13-3.46,1.81-4.18
			s3.6-0.02,4.28,1.56c1.37,3.19-2.7,10.49-2.7,10.49S24.37,54.98,23,51.79z"/>
	</g>
	<path class="st0" d="M58.67,32.75c0.32-1.16,1.58-1.83,2.82-1.49c1.24,0.34,1.98,1.56,1.66,2.72c0.32-1.16,1.58-1.83,2.82-1.49
		c1.24,0.34,1.98,1.56,1.66,2.72c-0.64,2.34-6.07,4.55-6.07,4.55S58.03,35.09,58.67,32.75z"/>
	<path class="st0" d="M8.57,41.95c-0.55-0.89-0.24-2.09,0.71-2.68c0.95-0.59,2.17-0.34,2.72,0.55c-0.55-0.89-0.24-2.09,0.71-2.68
		c0.95-0.59,2.17-0.34,2.72,0.55c1.12,1.79-0.67,6.56-0.67,6.56S9.69,43.75,8.57,41.95z"/>
	<path class="st0" d="M35.77,63.35c-0.09-1.2,0.88-2.26,2.16-2.35s2.39,0.81,2.47,2.01c-0.09-1.2,0.88-2.26,2.16-2.35
		s2.39,0.81,2.47,2.01c0.18,2.42-4.2,6.32-4.2,6.32S35.94,65.78,35.77,63.35z"/>
</g>
</svg>
