<?xml version="1.0" encoding="utf-8"?>
<!-- Generator: Adobe Illustrator 23.0.1, SVG Export Plug-In . SVG Version: 6.00 Build 0)  -->
<svg version="1.1" id="Layer_1" xmlns="http://www.w3.org/2000/svg" xmlns:xlink="http://www.w3.org/1999/xlink" x="0px" y="0px"
	 viewBox="0 0 74 74" style="enable-background:new 0 0 74 74;" xml:space="preserve">
<style type="text/css">
	.st0{fill:none;stroke:#000000;stroke-width:2;stroke-linecap:round;stroke-linejoin:round;stroke-miterlimit:10;}
	.st1{fill:none;}
</style>
<g>
	<g>
		<g>
			<circle class="st0" cx="37.24" cy="13.19" r="4.23"/>
		</g>
		<g>
			<path class="st0" d="M45.42,13.18c0,4.52-8.18,13.01-8.18,13.01s-8.19-8.48-8.19-13.01S32.72,5,37.24,5S45.42,8.66,45.42,13.18z"
				/>
		</g>
	</g>
	<g>
		<path class="st0" d="M11.86,49.71h7.97c2.67,0,4.84,1.99,4.84,4.44v0.22H11.64"/>
		<path class="st0" d="M62.09,49.71h-8.38c-2.28,0-4.12,1.84-4.12,4.12v0.55h12.7c0-0.04,0-0.07,0-0.11"/>
		<line class="st0" x1="44.92" y1="52.04" x2="44.92" y2="56.16"/>
		<line class="st0" x1="41.25" y1="52.04" x2="41.25" y2="56.16"/>
		<line class="st0" x1="37.35" y1="52.04" x2="37.35" y2="56.16"/>
		<line class="st0" x1="33.32" y1="52.04" x2="33.32" y2="56.16"/>
		<line class="st0" x1="29.31" y1="52.04" x2="29.31" y2="56.16"/>
		<line class="st0" x1="30.68" y1="59.78" x2="43.64" y2="59.78"/>
		<path class="st0" d="M61.9,47.79c0.58,4.7,0.5,9.55-0.15,14.53c-0.08,0.58-0.57,1.01-1.16,1.01H13.43c-0.58,0-1.07-0.42-1.16-1
			c-0.72-4.98-0.86-9.76-0.22-14.3c0.18-1.25,1.3-2.13,2.56-2.04c14.38,1.08,29.46,0.97,45.07-0.04
			C60.79,45.88,61.76,46.69,61.9,47.79z"/>
		<path class="st0" d="M59.45,45.95l-0.7-3.26l-0.81-3.72l-0.55-2.54c-0.83-3.94-4.31-6.76-8.36-6.76H27.6
			c-5.58,0-10.4,3.9-11.58,9.3c-0.07,0.28-0.11,0.57-0.15,0.88l-0.42,2.85l-0.48,3.31"/>
		<g>
			<path class="st0" d="M58.74,42.69h2.43c1.66,0,3-1.34,3-3v-0.13c0-0.33-0.27-0.6-0.6-0.6h-5.64"/>
		</g>
		<g>
			<path class="st0" d="M15.45,42.69h-2.62c-1.66,0-3-1.34-3-3v-0.12c0-0.33,0.26-0.6,0.6-0.6h5.59h0.05"/>
		</g>
		<path class="st0" d="M20.05,63.33v4.25c0,0.79-0.64,1.43-1.43,1.43h-4.77c-0.79,0-1.43-0.64-1.43-1.43v-4.25"/>
		<path class="st0" d="M61.43,63.33v4.25c0,0.79-0.64,1.43-1.43,1.43h-4.77c-0.79,0-1.43-0.64-1.43-1.43v-4.25"/>
	</g>
</g>
</svg>
