<?xml version="1.0" encoding="utf-8"?>
<!-- Generator: Adobe Illustrator 23.0.1, SVG Export Plug-In . SVG Version: 6.00 Build 0)  -->
<svg version="1.1" id="Layer_1" xmlns="http://www.w3.org/2000/svg" xmlns:xlink="http://www.w3.org/1999/xlink" x="0px" y="0px"
	 viewBox="0 0 74 74" style="enable-background:new 0 0 74 74;" xml:space="preserve">
<style type="text/css">
	.st0{fill:none;stroke:#000000;stroke-width:2;stroke-linecap:round;stroke-linejoin:round;stroke-miterlimit:10;}
	.st1{fill:none;}
</style>
<g>
	<g>
		<path class="st0" d="M48.8,45.68V33.45c0-2.68,2.18-4.86,4.86-4.86h8.87c2.68,0,4.86,2.18,4.86,4.86v18.89"/>
		<line class="st0" x1="62.67" y1="36.37" x2="62.67" y2="50.41"/>
		<line class="st0" x1="54.48" y1="48.45" x2="54.48" y2="36.37"/>
		<circle class="st0" cx="58.58" cy="19.72" r="4.1"/>
	</g>
	<g>
		<path class="st0" d="M25.2,42.41v-8.96c0-2.68-2.18-4.86-4.86-4.86h-8.87c-2.68,0-4.86,2.18-4.86,4.86v16.95"/>
		<line class="st0" x1="11.33" y1="36.37" x2="11.33" y2="45.68"/>
		<line class="st0" x1="19.52" y1="42.41" x2="19.52" y2="36.37"/>
		<circle class="st0" cx="15.42" cy="19.72" r="4.1"/>
	</g>
	<line class="st0" x1="51.15" y1="64.14" x2="27.14" y2="64.14"/>
	<path class="st0" d="M23.38,64.14c0,2.68-2.16,4.86-4.86,4.86c-2.68,0-4.86-2.18-4.86-4.86c0-2.68,2.18-4.86,4.86-4.86
		C21.23,59.28,23.38,61.46,23.38,64.14z"/>
	<path class="st0" d="M60.87,64.14c0,2.68-2.16,4.86-4.86,4.86c-2.68,0-4.86-2.18-4.86-4.86c0-2.68,2.18-4.86,4.86-4.86
		C58.72,59.28,60.87,61.46,60.87,64.14z"/>
	<path class="st0" d="M52,53.03l11,1.71c1.34,0.21,2.32,1.36,2.32,2.71v6.69h-4.45"/>
	<path class="st0" d="M20.62,53.03H52l-11.82-6.04c-0.63-0.32-1.33-0.49-2.04-0.49h-14.4c-0.86,0-1.7,0.25-2.42,0.71l-6.68,4.29
		c-1.15,0.74-2.41,1.25-3.66,1.79c-1.19,0.51-2.04,1.7-2.04,3.07v7.78h4.72"/>
	<path class="st0" d="M22.56,11.94c2.7-3.33,8.8-5.27,15-5.27c5.73,0,10.76,1.97,13.6,4.91"/>
	<polyline class="st0" points="51.16,5 51.16,11.59 45.33,14.72 	"/>
	<polyline class="st0" points="22.56,5 22.56,11.94 28.39,14.72 	"/>
</g>
</svg>
