<?xml version="1.0" encoding="utf-8"?>
<!-- Generator: Adobe Illustrator 23.0.1, SVG Export Plug-In . SVG Version: 6.00 Build 0)  -->
<svg version="1.1" id="Layer_1" xmlns="http://www.w3.org/2000/svg" xmlns:xlink="http://www.w3.org/1999/xlink" x="0px" y="0px"
	 viewBox="0 0 74 74" style="enable-background:new 0 0 74 74;" xml:space="preserve">
<style type="text/css">
	.st0{fill:none;stroke:#000000;stroke-width:2;stroke-linecap:round;stroke-linejoin:round;stroke-miterlimit:10;}
	.st1{fill:none;}
</style>
<g>
	<path class="st0" d="M55.06,17.47v9.71c0,3.3-2.67,5.97-5.97,5.97H24.42c-3.3,0-5.97-2.67-5.97-5.97v-9.71
		c0-3.3,2.67-5.97,5.97-5.97h24.67C52.39,11.5,55.06,14.17,55.06,17.47z"/>
	<path class="st0" d="M27.4,8.1h-6.82c-4.34,0-7.84,3.53-7.84,7.84v18.81c-2.42,0.39-4.24,2.48-4.24,5v15.22
		c0,2.81,2.29,5.09,5.09,5.09h3.82h7.22h24.46h7.22h4.11c2.81,0,5.09-2.29,5.09-5.09V39.74c0-2.68-2.09-4.9-4.73-5.06V15.94
		c0-4.31-3.49-7.84-7.84-7.84h-6.86V5H27.4V8.1z"/>
	<path class="st0" d="M56.3,60.05v5.36c0,1.99-1.6,3.59-3.62,3.59c-1.99,0-3.59-1.6-3.59-3.59v-5.36"/>
	<path class="st0" d="M24.62,60.05v5.36C24.62,67.4,22.99,69,21,69s-3.59-1.6-3.59-3.59v-5.36"/>
	<path class="st0" d="M58.16,46.11c0,2.25-1.83,4.11-4.08,4.11c-2.29,0-4.11-1.86-4.11-4.11c0-2.29,1.83-4.11,4.11-4.11
		C56.33,42,58.16,43.82,58.16,46.11z"/>
	<path class="st0" d="M58.16,46.11c0,2.25-1.83,4.11-4.08,4.11c-2.29,0-4.11-1.86-4.11-4.11c0-2.29,1.83-4.11,4.11-4.11
		C56.33,42,58.16,43.82,58.16,46.11z"/>
	<path class="st0" d="M23.9,46.11c0,2.25-1.83,4.11-4.08,4.11c-2.29,0-4.11-1.86-4.11-4.11c0-2.29,1.83-4.11,4.11-4.11
		C22.08,42,23.9,43.82,23.9,46.11z"/>
	<line class="st0" x1="28.15" y1="44.35" x2="45.85" y2="44.35"/>
	<line class="st0" x1="45.85" y1="48.59" x2="28.15" y2="48.59"/>
</g>
</svg>
