<?xml version="1.0" encoding="utf-8"?>
<!-- Generator: Adobe Illustrator 23.0.1, SVG Export Plug-In . SVG Version: 6.00 Build 0)  -->
<svg version="1.1" id="Layer_1" xmlns="http://www.w3.org/2000/svg" xmlns:xlink="http://www.w3.org/1999/xlink" x="0px" y="0px"
	 viewBox="0 0 74 74" style="enable-background:new 0 0 74 74;" xml:space="preserve">
<style type="text/css">
	.st0{fill:none;stroke:#000000;stroke-width:2;stroke-linecap:round;stroke-linejoin:round;stroke-miterlimit:10;}
	.st1{fill:none;}
</style>
<g>
	<path class="st0" d="M19.9,50.26c0,2.23-1.81,4.05-4.05,4.05c-2.23,0-4.02-1.81-4.02-4.05c0-2.23,1.79-4.05,4.02-4.05
		C18.08,46.21,19.9,48.02,19.9,50.26z"/>
	<path class="st0" d="M29.97,31.72L29.97,31.72L57.9,11.88L69,13.02l-1.89,10.35l-5.06,0.12v3.77h-4.79l-0.12,3.92H51.7v4.05h-5.29
		v4.02h-5.56l-0.12,4.05l-2.93,1.54l0,0c0.03,0.38,0-0.39,0,0c0,9.06-7.33,17.28-16.39,17.28S5,54.77,5,45.71S12.35,29.3,21.41,29.3
		C24.55,29.3,27.48,30.19,29.97,31.72z"/>
</g>
</svg>
