<?xml version="1.0" encoding="utf-8"?>
<!-- Generator: Adobe Illustrator 23.0.1, SVG Export Plug-In . SVG Version: 6.00 Build 0)  -->
<svg version="1.1" id="Layer_1" xmlns="http://www.w3.org/2000/svg" xmlns:xlink="http://www.w3.org/1999/xlink" x="0px" y="0px"
	 viewBox="0 0 74 74" style="enable-background:new 0 0 74 74;" xml:space="preserve">
<style type="text/css">
	.st0{fill:none;stroke:#000000;stroke-width:2;stroke-linecap:round;stroke-linejoin:round;stroke-miterlimit:10;}
</style>
<g>
	<path class="st0" d="M28.55,65.2c0,1.13-0.9,2.08-2.03,2.1c-0.07,0-0.14,0-0.21,0c-5.6,0-10.29-4.17-11.25-9.73l0,0l0,0
		c-4.86-0.19-9.05-3.71-9.75-8.53c0,0,0-0.04,0-0.08C5.12,47.54,5,46.03,5,44.53c0-17.68,14.32-32,32-32s32,14.32,32,32
		c0,1.51-0.12,3.01-0.31,4.44c-0.35,2.47-1.58,4.63-3.36,6.18s-4.09,2.47-6.6,2.47h-0.27h-1.78c-1,5.52-5.67,9.69-11.27,9.69
		c-0.01,0-0.01,0-0.02,0c-1.13,0-2.02-0.97-2.02-2.1v-19.7c0-1.13,0.89-2.09,2.02-2.1c0.01,0,0.02,0,0.03,0
		c4.63,0,8.65,2.86,10.46,6.95h0.93c1.31,0,2.39-0.97,2.62-2.28c0.19-1.16,0.31-2.35,0.31-3.55c0-12.35-10.58-22.39-23.62-22.39
		S12.49,32.18,12.49,44.53c0,1.27,0.12,2.51,0.31,3.71c0.23,1.2,1.24,2.12,2.47,2.12h0.62c1.81-4.09,5.79-6.95,10.42-6.95
		c0.07,0,0.13,0,0.2,0c1.14,0.02,2.04,0.96,2.04,2.1v4.38v7.26V65.2z"/>
</g>
</svg>
