<?xml version="1.0" encoding="utf-8"?>
<!-- Generator: Adobe Illustrator 23.0.1, SVG Export Plug-In . SVG Version: 6.00 Build 0)  -->
<svg version="1.1" id="Layer_1" xmlns="http://www.w3.org/2000/svg" xmlns:xlink="http://www.w3.org/1999/xlink" x="0px" y="0px"
	 viewBox="0 0 74 74" style="enable-background:new 0 0 74 74;" xml:space="preserve">
<style type="text/css">
	.st0{fill:none;stroke:#000000;stroke-width:2;stroke-linecap:round;stroke-linejoin:round;stroke-miterlimit:10;}
</style>
<g>
	<g>
		<path class="st0" d="M63.68,48.39v10.26c0,1.68-1.37,3.05-3.05,3.05H14.81c-1.68,0-3.05-1.37-3.05-3.05V48.47
			c0-1.2,0.49-2.35,1.36-3.18l1.21-1.15c0.69-0.65,1.6-1.02,2.55-1.02h42.11c1.18,0,2.28,0.56,2.98,1.51l0.85,1.16
			C63.38,46.55,63.68,47.46,63.68,48.39z"/>
		<line class="st0" x1="31.26" y1="51.42" x2="44.01" y2="51.42"/>
		<line class="st0" x1="44.01" y1="55.6" x2="31.26" y2="55.6"/>
		<rect x="49.39" y="50.24" class="st0" width="9.19" height="6.45"/>
		<rect x="17.14" y="50.24" class="st0" width="9.19" height="6.45"/>
		<path class="st0" d="M22.16,61.71v3.47c0,2.11-1.88,3.82-4.19,3.82h-2c-2.31,0-4.19-1.71-4.19-3.82v-6.51"/>
		<path class="st0" d="M63.68,58.66v6.51c0,2.11-1.88,3.82-4.19,3.82h-2c-2.31,0-4.19-1.71-4.19-3.82v-3.47"/>
		<path class="st0" d="M54.64,43.13c0.09-0.36,0.13-0.72,0.13-1.09c0-2.99-2.9-5.43-6.47-5.43c-3.58,0-6.47,2.44-6.47,5.43
			c0,0.38,0.04,0.73,0.13,1.09"/>
		<path class="st0" d="M60.77,43.59l-3.93-10.72c-0.59-1.7-2.19-2.85-4-2.85H22.68c-1.92,0-3.6,1.29-4.1,3.15l-2.63,9.96"/>
	</g>
	<path class="st0" d="M16.29,15.03c0,1.68,1.33,3.01,2.98,3.01c1.65,0,3.01-1.33,3.01-3.01c0-1.65-1.36-2.98-3.01-2.98
		C17.62,12.05,16.29,13.37,16.29,15.03z"/>
	<path class="st0" d="M58.03,15.03l-5.37,4.96H30.99c-1.71,3.06-4.99,5.1-8.75,5.1c-5.54,0-9.98-4.45-9.98-10.08
		C12.25,9.45,16.7,5,22.24,5c4.03,0,7.51,2.33,9.1,5.74h6.8l1.28-2.16l3.19,2.16l1.44-2.16l3.08,2.16l1.28-2.16l2.65,2.16h1.6
		L58.03,15.03z"/>
</g>
</svg>
