<?xml version="1.0" encoding="utf-8"?>
<!-- Generator: Adobe Illustrator 23.0.1, SVG Export Plug-In . SVG Version: 6.00 Build 0)  -->
<svg version="1.1" id="Layer_1" xmlns="http://www.w3.org/2000/svg" xmlns:xlink="http://www.w3.org/1999/xlink" x="0px" y="0px"
	 viewBox="0 0 74 74" style="enable-background:new 0 0 74 74;" xml:space="preserve">
<style type="text/css">
	.st0{fill:none;stroke:#000000;stroke-width:2;stroke-linecap:round;stroke-linejoin:round;stroke-miterlimit:10;}
</style>
<g>
	<g>
		<path class="st0" d="M50.22,42.08c0,1.61-1.3,2.91-2.91,2.91H21.66c-1.61,0-2.91-1.3-2.91-2.91l3.95-5.39
			c0.54-0.73,1.39-1.17,2.3-1.17h18.98c0.91,0,1.76,0.43,2.3,1.17L50.22,42.08z"/>
		<g>
			<path class="st0" d="M22.76,57.26c0,1.74-1.43,3.17-3.18,3.17c-1.76,0-3.18-1.43-3.18-3.17c0-1.76,1.43-3.18,3.18-3.18
				C21.33,54.08,22.76,55.5,22.76,57.26z"/>
		</g>
		<g>
			<path class="st0" d="M57.36,57.26c0,1.74-1.43,3.17-3.18,3.17c-1.76,0-3.18-1.43-3.18-3.17c0-1.76,1.43-3.18,3.18-3.18
				C55.93,54.08,57.36,55.5,57.36,57.26z"/>
		</g>
		<path class="st0" d="M10.28,39.75h-3.9c-2.69,0-4.87,2.18-4.87,4.87v8.15c0,3.8,3.08,6.88,6.88,6.88h3.83
			c0.67,3.44,3.69,6.08,7.36,6.08s6.69-2.64,7.36-6.08h19.88c0.67,3.44,3.69,6.08,7.36,6.08c3.66,0,6.69-2.64,7.36-6.08h4.91
			c3.59,0,6.5-2.91,6.5-6.5v-10.3c0,0,0.47-3.58-15.46-3.47c-0.89,0.01-1.73-0.39-2.28-1.08l-5.76-7.25
			c-0.73-0.92-1.85-1.46-3.03-1.46H22.94c-1.12,0-2.17,0.52-2.85,1.4l-4.93,6.36C13.99,38.87,12.18,39.75,10.28,39.75z"/>
	</g>
	<g>
		<path class="st0" d="M49.41,13.93c0,1.39-1.09,2.48-2.46,2.48s-2.48-1.09-2.48-2.48c0-1.36,1.12-2.46,2.48-2.46
			S49.41,12.57,49.41,13.93z"/>
	</g>
	<path class="st0" d="M55.36,13.9c0,5.77-4.55,10.33-10.22,10.33c-3.86,0-7.22-2.08-8.97-5.22H21.8l-5.5-5.08l5.5-4.39h14.02
		c1.64-3.5,5.19-5.89,9.33-5.89C50.81,3.66,55.36,8.21,55.36,13.9z"/>
</g>
</svg>
