<?xml version="1.0" encoding="utf-8"?>
<!-- Generator: Adobe Illustrator 23.0.1, SVG Export Plug-In . SVG Version: 6.00 Build 0)  -->
<svg version="1.1" id="Layer_1" xmlns="http://www.w3.org/2000/svg" xmlns:xlink="http://www.w3.org/1999/xlink" x="0px" y="0px"
	 viewBox="0 0 74 74" style="enable-background:new 0 0 74 74;" xml:space="preserve">
<style type="text/css">
	.st0{fill:none;stroke:#000000;stroke-width:2;stroke-linecap:round;stroke-linejoin:round;stroke-miterlimit:10;}
</style>
<g>
	<path class="st0" d="M30.71,15.44c0-7.24-5.89-13.13-13.13-13.13c-1.25,0-2.47,0.17-3.62,0.52l6.14,5.74
		c2.47,2.35,2.62,6.26,0.27,8.73c-1.22,1.3-2.87,1.97-4.52,1.97c-1.52,0-3.02-0.57-4.22-1.67l-6.59-6.16
		c-0.4,1.25-0.62,2.6-0.62,3.99c0,7.26,5.89,13.15,13.15,13.15c1.47,0,2.89-0.25,4.22-0.72l8.83,8.83l-4.12,3.82
		c-1.72-0.52-3.64-0.1-4.99,1.25L6.68,56.61c-1.77,1.75-1.45,4.92,0.72,7.09l0.75,0.75c2.17,2.17,5.34,2.5,7.09,0.72l14.85-14.85
		c1.5-1.5,1.87-3.72,1.05-5.56l3.92-3.64l8.98,8.98c-0.22,0.9-0.35,1.87-0.35,2.84c0,6.61,5.36,11.98,11.98,11.98
		c1.05,0,2.07-0.12,3.04-0.42l-4.14-3.87c-2.5-2.32-2.62-6.24-0.3-8.73c1.22-1.3,2.87-1.95,4.52-1.95c1.52,0,3.04,0.55,4.24,1.67
		l4.32,4.04c0.22-0.87,0.32-1.77,0.32-2.72c0-6.61-5.36-12-12-12c-1.12,0-2.2,0.15-3.22,0.45l-8.96-9.13l7.29-7.21
		c0.82-0.8,1.82-1.37,2.94-1.7l5.24-1.45c1.3-0.35,2.4-1.2,3.09-2.32l5.12-8.46c0.82-1.37,0.6-3.12-0.55-4.22l-2-1.97
		c-1.15-1.07-2.87-1.27-4.22-0.42l-9.16,5.81c-0.97,0.6-1.72,1.52-2.12,2.6L47,18.63c-0.32,0.92-0.85,1.75-1.55,2.42l-6.54,6.56
		l-8.66-8.81C30.56,17.73,30.71,16.61,30.71,15.44z"/>
</g>
</svg>
