<?xml version="1.0" encoding="utf-8"?>
<!-- Generator: Adobe Illustrator 23.0.1, SVG Export Plug-In . SVG Version: 6.00 Build 0)  -->
<svg version="1.1" id="Layer_1" xmlns="http://www.w3.org/2000/svg" xmlns:xlink="http://www.w3.org/1999/xlink" x="0px" y="0px"
	 viewBox="0 0 74 74" style="enable-background:new 0 0 74 74;" xml:space="preserve">
<style type="text/css">
	.st0{fill:none;stroke:#000000;stroke-width:2;stroke-linecap:round;stroke-linejoin:round;stroke-miterlimit:10;}
</style>
<g>
	<path class="st0" d="M25.28,19.62c0.41-0.02,0.8,0,1.2,0.04c0.59,0.06,1.14,0.2,1.68,0.4L30.7,31.9c-0.94,0.93-2.12,1.62-3.47,1.91
		c1.24,3.04,3.16,5.72,5.55,7.87c2.39,2.15,5.26,3.77,8.42,4.68c0.14-1.36,0.7-2.62,1.53-3.65l12.05,1.27
		c0.26,0.52,0.45,1.05,0.58,1.62c0.09,0.39,0.15,0.78,0.17,1.18c0.19,3.72-2.48,6.92-6.07,7.5c-0.23,0.03-0.49,0.05-0.73,0.07
		c-15.87,0.84-29.38-11.3-30.25-27.16c-0.01-0.24-0.01-0.5-0.01-0.73C18.67,22.82,21.56,19.83,25.28,19.62z"/>
	<path class="st0" d="M55.54,63.09C50.31,66.81,43.92,69,37.01,69c-17.66,0-32-14.34-32-32s14.34-32,32-32
		c17.66,0,31.98,14.34,31.98,32c0,3.87-0.77,7.53-2.03,10.96c-1.8,3.69-5.6,6.24-9.99,6.24c-1.67,0-3.26-0.36-4.67-1.03"/>
</g>
</svg>
