<svg id="Layer_1" data-name="Layer 1" xmlns="http://www.w3.org/2000/svg" viewBox="0 0 66 57.66"><defs><style>.cls-1{fill:none;stroke:#000;stroke-linecap:round;stroke-linejoin:round;stroke-width:2px;}</style></defs><title>tree-moveo</title><line class="cls-1" x1="42.31" y1="25.01" x2="42.31" y2="24.99"/><path class="cls-1" d="M43.19,54.09a25.16,25.16,0,0,1-1.85-6.56c-.14-.84-.25-1.71-.36-2.63-.14-1.18-.25-2.44-.28-3.76q-.09-1.22-.09-2.52c0-.31,0-.64,0-1,0-.9,0-1.88,0-2.89a3.57,3.57,0,0,1,0-.56,31.88,31.88,0,0,1,.25-3.89c.34-3.11,1.29-5.63,3.14-7.06a7.37,7.37,0,0,1,3.2,5,42.51,42.51,0,0,1,.44,6.34A38.5,38.5,0,0,1,47,42.4a8.74,8.74,0,0,0,3.92-4.59,11.35,11.35,0,0,0,.76-4.09c0-4.15-2.1-10.65-5.1-11.94a2.61,2.61,0,0,1,1.09-.22c5.27.08,8.86,5.21,8.86,10.5a3.46,3.46,0,0,1-.06.79A9.46,9.46,0,0,0,58.12,26a9.64,9.64,0,0,0-8.71-8.15,9.85,9.85,0,0,0-4.48.74h0a7,7,0,0,0-.17-1.5C43.7,12.34,38,9.57,31.93,10.91c-4.65,1-8.1,4.2-9,7.82a14.56,14.56,0,0,1,8.18-2.27c4.65,0,9,.81,10.6,3.27-1.76-1.17-4.35-.89-6.67-.89A10.52,10.52,0,0,0,24.31,29.09a10,10,0,0,0,3,7.09V36C25.55,28.54,39,21.42,42.27,22.6c-.89,1.13-4,4.14-5.19,7.53A27.77,27.77,0,0,0,36,34.19c0,.17-.09.34-.11.51-.23,1.2-.42,2.52-.56,3.86-.09.87-.14,1.74-.2,2.64s-.08,2.07-.08,3.16v.51a26.28,26.28,0,0,0,.11,2.69,50.81,50.81,0,0,0,.7,6.33" transform="translate(-5.37 -9.57)"/><path class="cls-1" d="M15.71,62.41c1.28-4.82,10.84-8.58,22.44-8.58,11.29,0,20.62,3.53,22.33,8.16" transform="translate(-5.37 -9.57)"/><path class="cls-1" d="M6.37,62.49c3.28,2.37,6.38,2.76,9.2,0,3.65-2.41,7.12-2.72,10.35,0,4.6,3.76,8.66,3.65,12.24,0,2.88-2.57,6.05-2.56,9.51,0,3.37,3.64,7,4.05,11.16,0q8.11-2.94,11.54,3.74" transform="translate(-5.37 -9.57)"/><path class="cls-1" d="M35.18,47.56a13,13,0,0,1,3.14-.34,14,14,0,0,1,3,.31" transform="translate(-5.37 -9.57)"/><path class="cls-1" d="M35.15,41.2a13.51,13.51,0,0,1,3-.28,14.86,14.86,0,0,1,2.58.22" transform="translate(-5.37 -9.57)"/><path class="cls-1" d="M40.61,34.75a17.5,17.5,0,0,0-2.49-.19,17.24,17.24,0,0,0-2.21.14" transform="translate(-5.37 -9.57)"/><path class="cls-1" d="M40.89,30.3a14.07,14.07,0,0,0-2.52-.2c-.45,0-.87,0-1.29,0" transform="translate(-5.37 -9.57)"/></svg>