<?xml version="1.0" encoding="utf-8"?>
<!-- Generator: Adobe Illustrator 23.0.1, SVG Export Plug-In . SVG Version: 6.00 Build 0)  -->
<svg version="1.1" id="Layer_1" xmlns="http://www.w3.org/2000/svg" xmlns:xlink="http://www.w3.org/1999/xlink" x="0px" y="0px"
	 viewBox="0 0 74 74" style="enable-background:new 0 0 74 74;" xml:space="preserve">
<style type="text/css">
	.st0{fill:none;stroke:#000000;stroke-width:2;stroke-linecap:round;stroke-linejoin:round;stroke-miterlimit:10;}
</style>
<g>
	<path class="st0" d="M46.27,17.17c0-0.04,0.02-0.09,0.04-0.13"/>
	<path class="st0" d="M45.14,19.15c0.91-1.26,1.48-2.48,1.37-3.57c0-1.22-0.39-2.37-1.07-3.31s-0.11-2.22,1.05-2.22h3.51
		c0.87,0,1.63,0.61,1.83,1.46l6.03,27.13c0.54,2.42-1.31,4.73-3.79,4.73c-2.03,0-3.7-1.55-3.88-3.55L49.1,26.92
		c-0.09-1.02-0.96-1.81-1.98-1.81c-1.09,0.02-1.94,0.91-1.94,1.98c0,0.07,0.02,0.15,0.02,0.22l4.22,36.3
		c0.22,1.89-1.26,3.55-3.18,3.55h-9.93L36.1,27.1C36.1,27.1,42.33,23.05,45.14,19.15z"/>
	<path class="st0" d="M31.68,67.17H22.4c-1.92,0-3.4-1.65-3.18-3.55l4.05-36.24c0.11-1-0.7-1.87-1.7-1.85
		c-0.83,0-1.52,0.59-1.65,1.42l-2.18,13.52c-0.26,1.68-1.7,2.9-3.4,2.9c-1.94,0-3.44-1.59-3.44-3.44c0-0.26,0.04-0.52,0.11-0.81
		l6.82-27.74c0.2-0.78,0.89-1.33,1.7-1.33h3.46c0.94,0,1.59,1.07,1.05,1.83c-0.46,0.65-0.76,1.42-0.89,2.24
		c-0.28,1.09,0.13,2.44,0.89,3.85c2.24,4.27,7.64,9.12,7.64,9.12V67.17z"/>
	<path class="st0" d="M32.22,18.63c-1.5-2.85-2.63-5.73-3.38-8.58c-0.04-0.15-0.09-0.28-0.11-0.41c-0.37-1.39-0.63-2.77-0.81-4.16
		c-0.15-1.24,0.85-2.31,2.09-2.31H39c1.2,0,2.2,1,2.09,2.2c-0.13,1.59-0.39,3.16-0.76,4.68l-0.09,0.3
		c-0.72,2.87-1.85,5.64-3.35,8.34c-0.72,1.28-1.52,2.57-2.42,3.83C33.64,21.22,32.9,19.93,32.22,18.63"/>
</g>
</svg>
